solid OpenSCAD_Model
  facet normal -1 0 0
    outer loop
      vertex -12 -4 -10.25
      vertex -12 4 10.25
      vertex -12 4 -10.25
    endloop
  endfacet
  facet normal -1 -0 0
    outer loop
      vertex -12 4 10.25
      vertex -12 -4 -10.25
      vertex -12 -4 10.25
    endloop
  endfacet
  facet normal 0 0 1
    outer loop
      vertex -6.5 4 10.25
      vertex -12 4 10.25
      vertex -6.5 -2 10.25
    endloop
  endfacet
  facet normal 0 0 1
    outer loop
      vertex 6.5 -2 10.25
      vertex 12 4 10.25
      vertex 6.5 4 10.25
    endloop
  endfacet
  facet normal 0 0 1
    outer loop
      vertex 12 4 10.25
      vertex 6.5 -2 10.25
      vertex 12 -4 10.25
    endloop
  endfacet
  facet normal -0 0 1
    outer loop
      vertex -6.5 -2 10.25
      vertex 12 -4 10.25
      vertex 6.5 -2 10.25
    endloop
  endfacet
  facet normal 0 0 1
    outer loop
      vertex -6.5 -2 10.25
      vertex -12 -4 10.25
      vertex 12 -4 10.25
    endloop
  endfacet
  facet normal 0 0 1
    outer loop
      vertex -12 -4 10.25
      vertex -6.5 -2 10.25
      vertex -12 4 10.25
    endloop
  endfacet
  facet normal 1 -0 0
    outer loop
      vertex 12 -4 10.25
      vertex 12 4 -10.25
      vertex 12 4 10.25
    endloop
  endfacet
  facet normal 1 0 0
    outer loop
      vertex 12 4 -10.25
      vertex 12 -4 10.25
      vertex 12 -4 -10.25
    endloop
  endfacet
  facet normal 0 0 -1
    outer loop
      vertex -12 -4 -10.25
      vertex 12 4 -10.25
      vertex 12 -4 -10.25
    endloop
  endfacet
  facet normal -0 0 -1
    outer loop
      vertex 12 4 -10.25
      vertex -12 -4 -10.25
      vertex -12 4 -10.25
    endloop
  endfacet
  facet normal 0 -1 0
    outer loop
      vertex -12 -4 -10.25
      vertex 12 -4 10.25
      vertex -12 -4 10.25
    endloop
  endfacet
  facet normal 0 -1 -0
    outer loop
      vertex 12 -4 10.25
      vertex -12 -4 -10.25
      vertex 12 -4 -10.25
    endloop
  endfacet
  facet normal 0 1 0
    outer loop
      vertex 12 4 10.25
      vertex 6.5 4 -8
      vertex 6.5 4 10.25
    endloop
  endfacet
  facet normal 0 1 0
    outer loop
      vertex 6.5 4 -8
      vertex 12 4 -10.25
      vertex -6.5 4 -8
    endloop
  endfacet
  facet normal 0 1 -0
    outer loop
      vertex 12 4 -10.25
      vertex 6.5 4 -8
      vertex 12 4 10.25
    endloop
  endfacet
  facet normal 0 1 -0
    outer loop
      vertex -6.5 4 -8
      vertex -12 4 10.25
      vertex -6.5 4 10.25
    endloop
  endfacet
  facet normal 0 1 0
    outer loop
      vertex -6.5 4 -8
      vertex -12 4 -10.25
      vertex -12 4 10.25
    endloop
  endfacet
  facet normal 0 1 0
    outer loop
      vertex -12 4 -10.25
      vertex -6.5 4 -8
      vertex 12 4 -10.25
    endloop
  endfacet
  facet normal 1 -0 0
    outer loop
      vertex -6.5 -2 10.25
      vertex -6.5 4 -8
      vertex -6.5 4 10.25
    endloop
  endfacet
  facet normal 1 0 0
    outer loop
      vertex -6.5 4 -8
      vertex -6.5 -2 10.25
      vertex -6.5 -2 -8
    endloop
  endfacet
  facet normal -1 0 0
    outer loop
      vertex 6.5 -2 -8
      vertex 6.5 4 10.25
      vertex 6.5 4 -8
    endloop
  endfacet
  facet normal -1 -0 0
    outer loop
      vertex 6.5 4 10.25
      vertex 6.5 -2 -8
      vertex 6.5 -2 10.25
    endloop
  endfacet
  facet normal -0 0 1
    outer loop
      vertex -6.5 4 -8
      vertex 6.5 -2 -8
      vertex 6.5 4 -8
    endloop
  endfacet
  facet normal 0 0 1
    outer loop
      vertex 6.5 -2 -8
      vertex -6.5 4 -8
      vertex -6.5 -2 -8
    endloop
  endfacet
  facet normal 0 1 -0
    outer loop
      vertex 6.5 -2 -8
      vertex -6.5 -2 10.25
      vertex 6.5 -2 10.25
    endloop
  endfacet
  facet normal 0 1 0
    outer loop
      vertex -6.5 -2 10.25
      vertex 6.5 -2 -8
      vertex -6.5 -2 -8
    endloop
  endfacet
endsolid OpenSCAD_Model
