solid OpenSCAD_Model
  facet normal -0 0 1
    outer loop
      vertex -17 3 1.25
      vertex 17 -3 1.25
      vertex 17 3 1.25
    endloop
  endfacet
  facet normal 0 0 1
    outer loop
      vertex 17 -3 1.25
      vertex -17 3 1.25
      vertex -17 -3 1.25
    endloop
  endfacet
  facet normal 0 0 -1
    outer loop
      vertex -17 -3 -1.25
      vertex 17 3 -1.25
      vertex 17 -3 -1.25
    endloop
  endfacet
  facet normal -0 0 -1
    outer loop
      vertex 17 3 -1.25
      vertex -17 -3 -1.25
      vertex -17 3 -1.25
    endloop
  endfacet
  facet normal 0 -1 0
    outer loop
      vertex -17 -3 -1.25
      vertex 17 -3 1.25
      vertex -17 -3 1.25
    endloop
  endfacet
  facet normal 0 -1 -0
    outer loop
      vertex 17 -3 1.25
      vertex -17 -3 -1.25
      vertex 17 -3 -1.25
    endloop
  endfacet
  facet normal 1 -0 0
    outer loop
      vertex 17 -3 1.25
      vertex 17 3 -1.25
      vertex 17 3 1.25
    endloop
  endfacet
  facet normal 1 0 0
    outer loop
      vertex 17 3 -1.25
      vertex 17 -3 1.25
      vertex 17 -3 -1.25
    endloop
  endfacet
  facet normal 0 1 -0
    outer loop
      vertex 17 3 -1.25
      vertex -17 3 1.25
      vertex 17 3 1.25
    endloop
  endfacet
  facet normal 0 1 0
    outer loop
      vertex -17 3 1.25
      vertex 17 3 -1.25
      vertex -17 3 -1.25
    endloop
  endfacet
  facet normal -1 0 0
    outer loop
      vertex -17 -3 -1.25
      vertex -17 3 1.25
      vertex -17 3 -1.25
    endloop
  endfacet
  facet normal -1 -0 0
    outer loop
      vertex -17 3 1.25
      vertex -17 -3 -1.25
      vertex -17 -3 1.25
    endloop
  endfacet
endsolid OpenSCAD_Model
